# xmcd
#
# Track frame offsets: 
#        150
#        20729
#        38729
#        58134
#        74199
#        91751
#        106679
#        129186
#        149849
#        173041
#        186471
#        200166
#        220194
#        238554
#        258081
#        278219
#        292441
#
# Disc length: 4088 seconds
#
# Revision: 2
# Processed by: cddbd v1.5.2PL0 Copyright (c) Steve Scherf et al.
# Submitted via: ExactAudioCopyFreeDBPlugin 1.0
#
DISCID=130ff611
DTITLE=Jill Johnson - Baby Blue Paper Live
DYEAR=2010
DGENRE=Country
TTITLE0=Baby Blue Paper
TTITLE1=Where the Rainbow Ends
TTITLE2=You`re Looking For Me
TTITLE3=Roots and Wings
TTITLE4=I Should Have Left Sooner
TTITLE5=You Think You`re the Man
TTITLE6=Say Something
TTITLE7=Don`t Feel Like Me
TTITLE8=What Happened to Us
TTITLE9=When Being Who You Are
TTITLE10=A Woman Knows
TTITLE11=You Better Think Again
TTITLE12=Angel of the Morning
TTITLE13=Love Lessons
TTITLE14=Better Than Me
TTITLE15=Papa Come Quick
TTITLE16=Jolene
EXTD=
EXTT0=
EXTT1=
EXTT2=
EXTT3=
EXTT4=
EXTT5=
EXTT6=
EXTT7=
EXTT8=
EXTT9=
EXTT10=
EXTT11=
EXTT12=
EXTT13=
EXTT14=
EXTT15=
EXTT16=
PLAYORDER=
